<?xml version="1.0" encoding="utf-8"?>
<!-- Generator: Adobe Illustrator 23.1.0, SVG Export Plug-In . SVG Version: 6.00 Build 0)  -->
<svg version="1.1" id="Layer_1" xmlns="http://www.w3.org/2000/svg" xmlns:xlink="http://www.w3.org/1999/xlink" x="0px" y="0px"
	 viewBox="0 0 300 300" style="enable-background:new 0 0 300 300;" xml:space="preserve">
<style type="text/css">
	.st0{fill:#FFF2DD;stroke:#111111;stroke-width:4;}
</style>
<circle class="st0" cx="150" cy="150" r="145.43"/>
<g>
	<path d="M86.65,115h13v59h36.6v11h-49.6V115z"/>
	<path d="M199.35,185l-14.3-20.5c-0.6,0.07-1.5,0.1-2.7,0.1h-15.8V185h-13v-70h28.8c6.07,0,11.35,1,15.85,3s7.95,4.87,10.35,8.6
		c2.4,3.73,3.6,8.17,3.6,13.3c0,5.27-1.28,9.8-3.85,13.6c-2.57,3.8-6.25,6.63-11.05,8.5l16.1,23H199.35z M194.65,129.6
		c-2.93-2.4-7.23-3.6-12.9-3.6h-15.2v27.9h15.2c5.67,0,9.96-1.22,12.9-3.65c2.93-2.43,4.4-5.88,4.4-10.35
		C199.05,135.43,197.58,132,194.65,129.6z"/>
</g>
</svg>
